<svg width="157" height="309" viewBox="0 0 157 309" fill="none" xmlns="http://www.w3.org/2000/svg">
<rect x="1.37437" y="1.45134" width="153.949" height="212.287" rx="7.29231" fill="#EA1D2C" stroke="#EFEFEF" stroke-width="1.62051"/>
<path d="M21.1566 261.856V248.244H23.6457V259.912H29.674V261.856H21.1566ZM33.1506 250.714C32.6969 250.714 32.3209 250.578 32.0228 250.305C31.7375 250.033 31.5949 249.69 31.5949 249.275C31.5949 248.86 31.7375 248.523 32.0228 248.264C32.3209 247.991 32.6969 247.855 33.1506 247.855C33.6044 247.855 33.9739 247.991 34.2591 248.264C34.5572 248.523 34.7063 248.86 34.7063 249.275C34.7063 249.69 34.5572 250.033 34.2591 250.305C33.9739 250.578 33.6044 250.714 33.1506 250.714ZM31.9061 261.856V252.211H34.3952V261.856H31.9061ZM42.7104 262.09C41.9844 262.09 41.3492 261.954 40.8047 261.681C40.2602 261.409 39.8194 261.027 39.4823 260.534L39.2101 261.856H36.9932V247.855H39.4823V253.592C39.7935 253.164 40.2018 252.788 40.7074 252.464C41.226 252.14 41.8937 251.978 42.7104 251.978C43.6179 251.978 44.4281 252.198 45.1412 252.639C45.8542 253.08 46.4181 253.683 46.833 254.447C47.2478 255.212 47.4553 256.081 47.4553 257.053C47.4553 258.026 47.2478 258.894 46.833 259.659C46.4181 260.411 45.8542 261.007 45.1412 261.448C44.4281 261.876 43.6179 262.09 42.7104 262.09ZM42.1853 259.912C42.9762 259.912 43.6308 259.646 44.1494 259.115C44.668 258.583 44.9273 257.896 44.9273 257.053C44.9273 256.211 44.668 255.517 44.1494 254.973C43.6308 254.428 42.9762 254.156 42.1853 254.156C41.3816 254.156 40.7204 254.428 40.2018 254.973C39.6962 255.504 39.4434 256.191 39.4434 257.034C39.4434 257.876 39.6962 258.57 40.2018 259.115C40.7204 259.646 41.3816 259.912 42.1853 259.912ZM54.3653 262.09C53.393 262.09 52.5309 261.882 51.779 261.468C51.0271 261.053 50.4372 260.469 50.0094 259.717C49.5816 258.965 49.3677 258.097 49.3677 257.112C49.3677 256.113 49.5751 255.225 49.9899 254.447C50.4178 253.67 51.0011 253.067 51.7401 252.639C52.492 252.198 53.3736 251.978 54.3848 251.978C55.3312 251.978 56.1673 252.185 56.8933 252.6C57.6193 253.015 58.1833 253.585 58.5851 254.311C59 255.024 59.2074 255.822 59.2074 256.703C59.2074 256.846 59.2009 256.995 59.188 257.15C59.188 257.306 59.1815 257.468 59.1685 257.637H51.8373C51.8892 258.389 52.1485 258.978 52.6152 259.406C53.0948 259.834 53.6717 260.048 54.3459 260.048C54.8515 260.048 55.2728 259.938 55.6099 259.717C55.9599 259.484 56.2192 259.186 56.3877 258.823H58.9157C58.7342 259.432 58.4296 259.99 58.0018 260.495C57.5869 260.988 57.0683 261.377 56.4461 261.662C55.8368 261.947 55.1432 262.09 54.3653 262.09ZM54.3848 254C53.7755 254 53.2374 254.175 52.7707 254.525C52.304 254.862 52.0059 255.381 51.8762 256.081H56.6794C56.6405 255.446 56.4072 254.94 55.9794 254.564C55.5515 254.188 55.02 254 54.3848 254ZM61.3009 261.856V252.211H63.5178L63.7511 254.02C64.1012 253.397 64.5744 252.905 65.1707 252.542C65.78 252.166 66.493 251.978 67.3098 251.978V254.603H66.6097C66.0652 254.603 65.5791 254.687 65.1513 254.856C64.7234 255.024 64.3864 255.316 64.1401 255.731C63.9067 256.146 63.79 256.723 63.79 257.462V261.856H61.3009ZM72.3363 262.09C71.5066 262.09 70.826 261.96 70.2945 261.701C69.7629 261.429 69.3675 261.072 69.1082 260.631C68.849 260.191 68.7193 259.704 68.7193 259.173C68.7193 258.278 69.0694 257.552 69.7694 256.995C70.4695 256.437 71.5196 256.159 72.9197 256.159H75.3699V255.925C75.3699 255.264 75.1819 254.778 74.806 254.467C74.43 254.156 73.9633 254 73.4058 254C72.9002 254 72.4595 254.123 72.0835 254.37C71.7075 254.603 71.4742 254.953 71.3834 255.42H68.9527C69.0175 254.72 69.2508 254.11 69.6527 253.592C70.0676 253.073 70.5991 252.678 71.2473 252.406C71.8955 252.12 72.6215 251.978 73.4253 251.978C74.7995 251.978 75.882 252.321 76.6728 253.008C77.4636 253.696 77.859 254.668 77.859 255.925V261.856H75.7394L75.506 260.301C75.2208 260.819 74.8189 261.247 74.3004 261.584C73.7948 261.921 73.1401 262.09 72.3363 262.09ZM72.9002 260.145C73.6133 260.145 74.1642 259.912 74.5532 259.445C74.9551 258.978 75.2079 258.402 75.3116 257.714H73.1919C72.5308 257.714 72.0576 257.838 71.7724 258.084C71.4872 258.317 71.3446 258.609 71.3446 258.959C71.3446 259.335 71.4872 259.627 71.7724 259.834C72.0576 260.041 72.4335 260.145 72.9002 260.145ZM80.2343 261.856V252.211H82.4512L82.6845 254.02C83.0346 253.397 83.5078 252.905 84.1041 252.542C84.7134 252.166 85.4265 251.978 86.2432 251.978V254.603H85.5431C84.9986 254.603 84.5125 254.687 84.0847 254.856C83.6569 255.024 83.3198 255.316 83.0735 255.731C82.8401 256.146 82.7234 256.723 82.7234 257.462V261.856H80.2343ZM92.5781 261.856V252.211H94.7755L94.9894 253.514C95.3005 253.047 95.7089 252.678 96.2145 252.406C96.7331 252.12 97.3294 251.978 98.0036 251.978C99.4944 251.978 100.551 252.555 101.173 253.709C101.523 253.177 101.99 252.756 102.573 252.445C103.17 252.133 103.818 251.978 104.518 251.978C105.776 251.978 106.741 252.354 107.415 253.106C108.09 253.858 108.427 254.96 108.427 256.412V261.856H105.938V256.645C105.938 255.815 105.776 255.18 105.451 254.739C105.14 254.298 104.654 254.078 103.993 254.078C103.319 254.078 102.774 254.324 102.359 254.817C101.958 255.31 101.757 255.997 101.757 256.878V261.856H99.2676V256.645C99.2676 255.815 99.1055 255.18 98.7814 254.739C98.4573 254.298 97.9582 254.078 97.284 254.078C96.6229 254.078 96.0849 254.324 95.67 254.817C95.2681 255.31 95.0672 255.997 95.0672 256.878V261.856H92.5781ZM114.115 262.09C113.285 262.09 112.605 261.96 112.073 261.701C111.542 261.429 111.146 261.072 110.887 260.631C110.628 260.191 110.498 259.704 110.498 259.173C110.498 258.278 110.848 257.552 111.548 256.995C112.248 256.437 113.298 256.159 114.699 256.159H117.149V255.925C117.149 255.264 116.961 254.778 116.585 254.467C116.209 254.156 115.742 254 115.185 254C114.679 254 114.238 254.123 113.862 254.37C113.486 254.603 113.253 254.953 113.162 255.42H110.732C110.796 254.72 111.03 254.11 111.432 253.592C111.846 253.073 112.378 252.678 113.026 252.406C113.674 252.12 114.4 251.978 115.204 251.978C116.578 251.978 117.661 252.321 118.452 253.008C119.242 253.696 119.638 254.668 119.638 255.925V261.856H117.518L117.285 260.301C117 260.819 116.598 261.247 116.079 261.584C115.574 261.921 114.919 262.09 114.115 262.09ZM114.679 260.145C115.392 260.145 115.943 259.912 116.332 259.445C116.734 258.978 116.987 258.402 117.09 257.714H114.971C114.31 257.714 113.836 257.838 113.551 258.084C113.266 258.317 113.123 258.609 113.123 258.959C113.123 259.335 113.266 259.627 113.551 259.834C113.836 260.041 114.212 260.145 114.679 260.145ZM123.355 250.714C122.901 250.714 122.525 250.578 122.227 250.305C121.942 250.033 121.799 249.69 121.799 249.275C121.799 248.86 121.942 248.523 122.227 248.264C122.525 247.991 122.901 247.855 123.355 247.855C123.809 247.855 124.178 247.991 124.463 248.264C124.762 248.523 124.911 248.86 124.911 249.275C124.911 249.69 124.762 250.033 124.463 250.305C124.178 250.578 123.809 250.714 123.355 250.714ZM122.11 261.856V252.211H124.6V261.856H122.11ZM131.184 262.09C130.328 262.09 129.576 261.954 128.928 261.681C128.28 261.396 127.761 261.007 127.373 260.515C126.984 260.022 126.75 259.452 126.673 258.803H129.181C129.259 259.179 129.466 259.503 129.803 259.776C130.153 260.035 130.601 260.165 131.145 260.165C131.69 260.165 132.085 260.054 132.331 259.834C132.591 259.614 132.72 259.361 132.72 259.076C132.72 258.661 132.539 258.382 132.176 258.239C131.813 258.084 131.307 257.935 130.659 257.792C130.244 257.701 129.823 257.591 129.395 257.462C128.967 257.332 128.572 257.17 128.209 256.975C127.859 256.768 127.574 256.509 127.353 256.198C127.133 255.874 127.023 255.478 127.023 255.011C127.023 254.156 127.36 253.436 128.034 252.853C128.721 252.269 129.68 251.978 130.912 251.978C132.053 251.978 132.96 252.244 133.634 252.775C134.321 253.307 134.73 254.039 134.859 254.973H132.506C132.364 254.259 131.826 253.903 130.892 253.903C130.426 253.903 130.063 253.994 129.803 254.175C129.557 254.357 129.434 254.584 129.434 254.856C129.434 255.141 129.622 255.368 129.998 255.536C130.374 255.705 130.873 255.861 131.495 256.003C132.169 256.159 132.785 256.334 133.343 256.528C133.913 256.71 134.367 256.988 134.704 257.364C135.041 257.727 135.209 258.252 135.209 258.94C135.222 259.536 135.067 260.074 134.743 260.554C134.419 261.033 133.952 261.409 133.343 261.681C132.733 261.954 132.014 262.09 131.184 262.09ZM38.6942 293.856V280.244H43.6919C44.7809 280.244 45.6754 280.432 46.3755 280.808C47.0885 281.171 47.62 281.67 47.97 282.305C48.3201 282.928 48.4951 283.621 48.4951 284.386C48.4951 285.216 48.2747 285.974 47.8339 286.661C47.4061 287.348 46.732 287.848 45.8115 288.159L48.6312 293.856H45.7726L43.2446 288.489H41.1833V293.856H38.6942ZM41.1833 286.661H43.5363C44.366 286.661 44.9753 286.46 45.3643 286.059C45.7532 285.657 45.9476 285.125 45.9476 284.464C45.9476 283.816 45.7532 283.297 45.3643 282.908C44.9883 282.519 44.3725 282.325 43.5169 282.325H41.1833V286.661ZM54.8496 294.09C53.8773 294.09 53.0152 293.882 52.2632 293.468C51.5113 293.053 50.9215 292.469 50.4936 291.717C50.0658 290.965 49.8519 290.097 49.8519 289.112C49.8519 288.113 50.0593 287.225 50.4742 286.447C50.902 285.67 51.4854 285.067 52.2244 284.639C52.9763 284.198 53.8578 283.978 54.869 283.978C55.8154 283.978 56.6516 284.185 57.3776 284.6C58.1036 285.015 58.6675 285.585 59.0694 286.311C59.4842 287.024 59.6917 287.822 59.6917 288.703C59.6917 288.846 59.6852 288.995 59.6722 289.15C59.6722 289.306 59.6657 289.468 59.6528 289.637H52.3216C52.3734 290.389 52.6327 290.978 53.0994 291.406C53.5791 291.834 54.156 292.048 54.8301 292.048C55.3357 292.048 55.7571 291.938 56.0941 291.717C56.4442 291.484 56.7034 291.186 56.872 290.823H59.4C59.2185 291.432 58.9138 291.99 58.486 292.495C58.0712 292.988 57.5526 293.377 56.9303 293.662C56.321 293.947 55.6274 294.09 54.8496 294.09ZM54.869 286C54.2597 286 53.7217 286.175 53.255 286.525C52.7883 286.862 52.4901 287.381 52.3605 288.081H57.1637C57.1248 287.446 56.8914 286.94 56.4636 286.564C56.0358 286.188 55.5043 286 54.869 286ZM66.5106 294.09C65.5253 294.09 64.6567 293.876 63.9048 293.448C63.1529 293.02 62.5565 292.424 62.1158 291.659C61.6879 290.894 61.474 290.019 61.474 289.034C61.474 288.049 61.6879 287.173 62.1158 286.409C62.5565 285.644 63.1529 285.047 63.9048 284.62C64.6567 284.192 65.5253 283.978 66.5106 283.978C67.7422 283.978 68.7793 284.302 69.622 284.95C70.4646 285.585 71.0026 286.467 71.236 287.595H68.6108C68.4811 287.128 68.2218 286.765 67.8329 286.506C67.457 286.234 67.0097 286.097 66.4911 286.097C65.804 286.097 65.2207 286.357 64.741 286.875C64.2613 287.394 64.0215 288.113 64.0215 289.034C64.0215 289.954 64.2613 290.674 64.741 291.192C65.2207 291.711 65.804 291.97 66.4911 291.97C67.0097 291.97 67.457 291.841 67.8329 291.581C68.2218 291.322 68.4811 290.952 68.6108 290.473H71.236C71.0026 291.562 70.4646 292.437 69.622 293.098C68.7793 293.759 67.7422 294.09 66.5106 294.09ZM78.1318 294.09C77.1595 294.09 76.2974 293.882 75.5455 293.468C74.7935 293.053 74.2037 292.469 73.7759 291.717C73.348 290.965 73.1341 290.097 73.1341 289.112C73.1341 288.113 73.3416 287.225 73.7564 286.447C74.1842 285.67 74.7676 285.067 75.5066 284.639C76.2585 284.198 77.14 283.978 78.1512 283.978C79.0976 283.978 79.9338 284.185 80.6598 284.6C81.3858 285.015 81.9497 285.585 82.3516 286.311C82.7665 287.024 82.9739 287.822 82.9739 288.703C82.9739 288.846 82.9674 288.995 82.9544 289.15C82.9544 289.306 82.948 289.468 82.935 289.637H75.6038C75.6557 290.389 75.9149 290.978 76.3816 291.406C76.8613 291.834 77.4382 292.048 78.1123 292.048C78.6179 292.048 79.0393 291.938 79.3763 291.717C79.7264 291.484 79.9857 291.186 80.1542 290.823H82.6822C82.5007 291.432 82.196 291.99 81.7682 292.495C81.3534 292.988 80.8348 293.377 80.2125 293.662C79.6032 293.947 78.9096 294.09 78.1318 294.09ZM78.1512 286C77.5419 286 77.0039 286.175 76.5372 286.525C76.0705 286.862 75.7723 287.381 75.6427 288.081H80.4459C80.407 287.446 80.1736 286.94 79.7458 286.564C79.318 286.188 78.7865 286 78.1512 286ZM86.4092 282.714C85.9554 282.714 85.5795 282.578 85.2813 282.305C84.9961 282.033 84.8535 281.69 84.8535 281.275C84.8535 280.86 84.9961 280.523 85.2813 280.264C85.5795 279.991 85.9554 279.855 86.4092 279.855C86.8629 279.855 87.2324 279.991 87.5176 280.264C87.8158 280.523 87.9649 280.86 87.9649 281.275C87.9649 281.69 87.8158 282.033 87.5176 282.305C87.2324 282.578 86.8629 282.714 86.4092 282.714ZM85.1646 293.856V284.211H87.6537V293.856H85.1646ZM94.5494 293.856C93.5382 293.856 92.7279 293.61 92.1186 293.117C91.5093 292.625 91.2046 291.75 91.2046 290.492V286.292H89.5517V284.211H91.2046L91.4963 281.625H93.6937V284.211H96.2995V286.292H93.6937V290.512C93.6937 290.978 93.791 291.303 93.9854 291.484C94.1928 291.653 94.5429 291.737 95.0355 291.737H96.2412V293.856H94.5494ZM101.762 294.09C100.932 294.09 100.252 293.96 99.7201 293.701C99.1885 293.429 98.7931 293.072 98.5338 292.631C98.2746 292.191 98.1449 291.704 98.1449 291.173C98.1449 290.278 98.495 289.552 99.195 288.995C99.8951 288.437 100.945 288.159 102.345 288.159H104.796V287.925C104.796 287.264 104.608 286.778 104.232 286.467C103.856 286.156 103.389 286 102.831 286C102.326 286 101.885 286.123 101.509 286.37C101.133 286.603 100.9 286.953 100.809 287.42H98.3783C98.4431 286.72 98.6765 286.11 99.0783 285.592C99.4932 285.073 100.025 284.678 100.673 284.406C101.321 284.12 102.047 283.978 102.851 283.978C104.225 283.978 105.308 284.321 106.098 285.008C106.889 285.696 107.285 286.668 107.285 287.925V293.856H105.165L104.932 292.301C104.646 292.819 104.245 293.247 103.726 293.584C103.22 293.921 102.566 294.09 101.762 294.09ZM102.326 292.145C103.039 292.145 103.59 291.912 103.979 291.445C104.381 290.978 104.633 290.402 104.737 289.714H102.618C101.956 289.714 101.483 289.838 101.198 290.084C100.913 290.317 100.77 290.609 100.77 290.959C100.77 291.335 100.913 291.627 101.198 291.834C101.483 292.041 101.859 292.145 102.326 292.145ZM113.646 294.09C112.791 294.09 112.039 293.954 111.391 293.681C110.742 293.396 110.224 293.007 109.835 292.515C109.446 292.022 109.213 291.452 109.135 290.803H111.643C111.721 291.179 111.929 291.503 112.266 291.776C112.616 292.035 113.063 292.165 113.608 292.165C114.152 292.165 114.547 292.054 114.794 291.834C115.053 291.614 115.183 291.361 115.183 291.076C115.183 290.661 115.001 290.382 114.638 290.239C114.275 290.084 113.77 289.935 113.121 289.792C112.706 289.701 112.285 289.591 111.857 289.462C111.43 289.332 111.034 289.17 110.671 288.975C110.321 288.768 110.036 288.509 109.816 288.198C109.595 287.874 109.485 287.478 109.485 287.011C109.485 286.156 109.822 285.436 110.496 284.853C111.183 284.269 112.143 283.978 113.374 283.978C114.515 283.978 115.422 284.244 116.097 284.775C116.784 285.307 117.192 286.039 117.322 286.973H114.969C114.826 286.259 114.288 285.903 113.355 285.903C112.888 285.903 112.525 285.994 112.266 286.175C112.019 286.357 111.896 286.584 111.896 286.856C111.896 287.141 112.084 287.368 112.46 287.536C112.836 287.705 113.335 287.861 113.958 288.003C114.632 288.159 115.247 288.334 115.805 288.528C116.375 288.71 116.829 288.988 117.166 289.364C117.503 289.727 117.672 290.252 117.672 290.94C117.685 291.536 117.529 292.074 117.205 292.554C116.881 293.033 116.414 293.409 115.805 293.681C115.196 293.954 114.476 294.09 113.646 294.09Z" fill="#7C7B7A"/>
<path d="M23.2513 136.764C23.2513 133.184 26.1534 130.282 29.7333 130.282H154.513V206.446C154.513 210.026 151.611 212.928 148.031 212.928H23.2513V136.764Z" fill="#C90016"/>
<path d="M70.4679 167.784C72.2971 165.196 74.7143 164.758 76.0208 164.884C77.3274 165.009 79.3962 165.553 79.2873 168.119C79.169 170.906 77.5452 172.246 76.4564 173.027C74.061 174.745 71.2301 174.143 70.2502 173.362C69.9784 173.145 68.1814 171.019 70.4679 167.784Z" fill="white"/>
<path d="M60.6686 167.784C62.4978 165.196 64.915 164.758 66.2216 164.884C67.5281 165.009 69.5969 165.553 69.488 168.119C69.3697 170.906 67.7459 172.246 66.6571 173.027C64.2617 174.745 61.4308 174.143 60.4509 173.362C60.1791 173.145 58.3821 171.019 60.6686 167.784Z" fill="white"/>
<path d="M54.7324 161.072H51.6838L51.1394 163.638H54.188L54.7324 161.072Z" fill="white"/>
<path d="M53.9703 165.088H50.9216L49.1795 174.012H52.2282L53.9703 165.088Z" fill="white"/>
<path d="M62.6808 161.518C58.0642 159.912 56.1116 163.229 55.7124 165.088H54.7324L54.4058 166.873H55.3857L53.5348 176.466H56.5834L58.4344 166.873H60.7209L61.0475 165.088H58.8699C58.8699 162.5 61.1927 162.894 62.3541 163.415L62.6808 161.518Z" fill="white"/>
<path d="M72.9156 178.14C65.5117 184.119 60.3217 179.515 58.6522 176.466C60.8298 186.157 70.6291 184.275 74.7665 180.705L75.6376 183.383L77.053 176.466H70.9557L72.9156 178.14Z" fill="white"/>
<path d="M89.901 161.295L87.5056 174.012H84.3481L84.7215 172.116C83.6948 173.901 79.4484 175.239 79.1218 172.227C78.9766 171.074 79.1871 168.167 81.626 166.203C84.065 164.24 85.5457 164.976 86.0835 165.199L86.8523 161.295H89.901Z" fill="white"/>
<path d="M83.0923 188.202V179.127H86.0222C86.7309 179.127 87.31 179.243 87.7594 179.477C88.2088 179.71 88.5416 180.03 88.7577 180.436C88.9737 180.842 89.0818 181.292 89.0818 181.784C89.0818 182.355 88.9262 182.869 88.6151 183.327C88.3126 183.785 87.8372 184.109 87.189 184.299L89.1725 188.202H87.8891L86.0482 184.455H85.9704H84.1813V188.202H83.0923ZM84.1813 183.599H85.9444C86.6445 183.599 87.1544 183.431 87.4742 183.094C87.794 182.757 87.9539 182.325 87.9539 181.797C87.9539 181.262 87.794 180.838 87.4742 180.527C87.1631 180.207 86.6488 180.047 85.9315 180.047H84.1813V183.599ZM93.2108 188.357C92.5972 188.357 92.0527 188.219 91.5774 187.942C91.102 187.657 90.726 187.264 90.4495 186.763C90.1816 186.261 90.0476 185.669 90.0476 184.987C90.0476 184.312 90.1816 183.725 90.4495 183.223C90.7174 182.714 91.089 182.32 91.5644 182.044C92.0484 181.759 92.6058 181.616 93.2368 181.616C93.859 181.616 94.3949 181.759 94.8443 182.044C95.3024 182.32 95.6524 182.688 95.8944 183.146C96.1364 183.604 96.2574 184.096 96.2574 184.624C96.2574 184.719 96.2531 184.814 96.2444 184.909C96.2444 185.004 96.2444 185.112 96.2444 185.233H91.1236C91.1495 185.726 91.2619 186.136 91.4607 186.464C91.6681 186.784 91.9231 187.026 92.2256 187.19C92.5367 187.355 92.8651 187.437 93.2108 187.437C93.6603 187.437 94.0362 187.333 94.3387 187.126C94.6412 186.918 94.8616 186.637 94.9999 186.283H96.0759C95.903 186.879 95.5703 187.376 95.0777 187.774C94.5937 188.163 93.9714 188.357 93.2108 188.357ZM93.2108 182.536C92.6923 182.536 92.2299 182.696 91.8237 183.016C91.4261 183.327 91.1971 183.785 91.1366 184.39H95.1814C95.1554 183.811 94.9567 183.357 94.585 183.029C94.2134 182.701 93.7553 182.536 93.2108 182.536ZM100.657 188.357C100.043 188.357 99.4898 188.219 98.9972 187.942C98.5132 187.657 98.1286 187.264 97.8434 186.763C97.5668 186.253 97.4285 185.661 97.4285 184.987C97.4285 184.312 97.5668 183.725 97.8434 183.223C98.1286 182.714 98.5132 182.32 98.9972 182.044C99.4898 181.759 100.043 181.616 100.657 181.616C101.417 181.616 102.057 181.815 102.575 182.212C103.102 182.61 103.435 183.141 103.574 183.807H102.459C102.372 183.409 102.16 183.102 101.823 182.886C101.486 182.662 101.093 182.549 100.644 182.549C100.281 182.549 99.9392 182.64 99.6195 182.822C99.2997 183.003 99.0404 183.275 98.8416 183.638C98.6428 184.001 98.5434 184.451 98.5434 184.987C98.5434 185.522 98.6428 185.972 98.8416 186.335C99.0404 186.698 99.2997 186.974 99.6195 187.165C99.9392 187.346 100.281 187.437 100.644 187.437C101.093 187.437 101.486 187.329 101.823 187.113C102.16 186.888 102.372 186.573 102.459 186.166H103.574C103.444 186.815 103.115 187.342 102.588 187.748C102.061 188.154 101.417 188.357 100.657 188.357ZM107.985 188.357C107.372 188.357 106.827 188.219 106.352 187.942C105.877 187.657 105.501 187.264 105.224 186.763C104.956 186.261 104.822 185.669 104.822 184.987C104.822 184.312 104.956 183.725 105.224 183.223C105.492 182.714 105.864 182.32 106.339 182.044C106.823 181.759 107.38 181.616 108.011 181.616C108.634 181.616 109.169 181.759 109.619 182.044C110.077 182.32 110.427 182.688 110.669 183.146C110.911 183.604 111.032 184.096 111.032 184.624C111.032 184.719 111.028 184.814 111.019 184.909C111.019 185.004 111.019 185.112 111.019 185.233H105.898C105.924 185.726 106.036 186.136 106.235 186.464C106.443 186.784 106.698 187.026 107 187.19C107.311 187.355 107.64 187.437 107.985 187.437C108.435 187.437 108.811 187.333 109.113 187.126C109.416 186.918 109.636 186.637 109.774 186.283H110.85C110.678 186.879 110.345 187.376 109.852 187.774C109.368 188.163 108.746 188.357 107.985 188.357ZM107.985 182.536C107.467 182.536 107.004 182.696 106.598 183.016C106.201 183.327 105.972 183.785 105.911 184.39H109.956C109.93 183.811 109.731 183.357 109.36 183.029C108.988 182.701 108.53 182.536 107.985 182.536ZM113.136 180.345C112.92 180.345 112.739 180.276 112.592 180.138C112.454 179.991 112.385 179.81 112.385 179.593C112.385 179.386 112.454 179.213 112.592 179.075C112.739 178.937 112.92 178.868 113.136 178.868C113.344 178.868 113.521 178.937 113.668 179.075C113.815 179.213 113.888 179.386 113.888 179.593C113.888 179.81 113.815 179.991 113.668 180.138C113.521 180.276 113.344 180.345 113.136 180.345ZM112.592 188.202V181.771H113.681V188.202H112.592ZM118.118 188.202C117.53 188.202 117.068 188.059 116.731 187.774C116.394 187.489 116.225 186.974 116.225 186.231V182.692H115.11V181.771H116.225L116.368 180.229H117.314V181.771H119.207V182.692H117.314V186.231C117.314 186.637 117.396 186.914 117.561 187.061C117.725 187.199 118.014 187.268 118.429 187.268H119.103V188.202H118.118ZM122.73 188.357C122.194 188.357 121.749 188.266 121.394 188.085C121.04 187.903 120.776 187.661 120.603 187.359C120.431 187.056 120.344 186.728 120.344 186.374C120.344 185.717 120.595 185.211 121.096 184.857C121.597 184.503 122.28 184.325 123.144 184.325H124.882V184.248C124.882 183.686 124.735 183.262 124.441 182.977C124.147 182.683 123.754 182.536 123.261 182.536C122.838 182.536 122.47 182.644 122.159 182.86C121.857 183.068 121.667 183.375 121.589 183.781H120.474C120.517 183.314 120.673 182.921 120.941 182.601C121.217 182.281 121.558 182.039 121.965 181.875C122.371 181.702 122.803 181.616 123.261 181.616C124.16 181.616 124.834 181.858 125.284 182.342C125.742 182.817 125.971 183.452 125.971 184.248V188.202H124.998L124.933 187.048C124.752 187.411 124.484 187.722 124.13 187.981C123.784 188.232 123.317 188.357 122.73 188.357ZM122.898 187.437C123.313 187.437 123.667 187.329 123.961 187.113C124.264 186.897 124.493 186.616 124.648 186.27C124.804 185.924 124.882 185.561 124.882 185.181V185.168H123.235C122.596 185.168 122.142 185.28 121.874 185.505C121.615 185.721 121.485 185.993 121.485 186.322C121.485 186.659 121.606 186.931 121.848 187.139C122.099 187.337 122.449 187.437 122.898 187.437ZM130.067 188.357C129.298 188.357 128.659 188.163 128.149 187.774C127.639 187.385 127.341 186.858 127.254 186.192H128.369C128.438 186.529 128.615 186.823 128.901 187.074C129.195 187.316 129.588 187.437 130.08 187.437C130.538 187.437 130.876 187.342 131.092 187.152C131.308 186.953 131.416 186.719 131.416 186.452C131.416 186.063 131.273 185.803 130.988 185.674C130.711 185.544 130.318 185.427 129.808 185.324C129.462 185.254 129.117 185.155 128.771 185.025C128.425 184.896 128.136 184.714 127.902 184.481C127.669 184.239 127.552 183.924 127.552 183.535C127.552 182.973 127.76 182.515 128.175 182.16C128.598 181.797 129.169 181.616 129.886 181.616C130.569 181.616 131.126 181.789 131.558 182.134C131.999 182.472 132.254 182.956 132.323 183.586H131.247C131.204 183.258 131.061 183.003 130.819 182.822C130.586 182.631 130.271 182.536 129.873 182.536C129.484 182.536 129.182 182.618 128.966 182.783C128.758 182.947 128.654 183.163 128.654 183.431C128.654 183.69 128.788 183.893 129.056 184.04C129.333 184.187 129.704 184.312 130.171 184.416C130.569 184.503 130.945 184.611 131.299 184.74C131.662 184.861 131.956 185.047 132.181 185.298C132.414 185.54 132.531 185.894 132.531 186.361C132.539 186.94 132.319 187.419 131.869 187.8C131.429 188.171 130.828 188.357 130.067 188.357Z" fill="white"/>
<path d="M21.4054 48.4308V34.8185H23.8945V46.4862H29.9228V48.4308H21.4054ZM33.3994 37.2881C32.9457 37.2881 32.5697 37.152 32.2716 36.8798C31.9864 36.6075 31.8438 36.264 31.8438 35.8491C31.8438 35.4343 31.9864 35.0972 32.2716 34.8379C32.5697 34.5657 32.9457 34.4296 33.3994 34.4296C33.8532 34.4296 34.2227 34.5657 34.5079 34.8379C34.8061 35.0972 34.9551 35.4343 34.9551 35.8491C34.9551 36.264 34.8061 36.6075 34.5079 36.8798C34.2227 37.152 33.8532 37.2881 33.3994 37.2881ZM32.1549 48.4308V38.7855H34.644V48.4308H32.1549ZM42.9592 48.6641C42.2332 48.6641 41.598 48.528 41.0535 48.2558C40.509 47.9835 40.0682 47.6011 39.7311 47.1084L39.4589 48.4308H37.242V34.4296H39.7311V40.1662C40.0423 39.7384 40.4507 39.3624 40.9563 39.0383C41.4748 38.7142 42.1425 38.5521 42.9592 38.5521C43.8667 38.5521 44.677 38.7725 45.39 39.2133C46.103 39.6541 46.6669 40.2569 47.0818 41.0218C47.4966 41.7867 47.7041 42.6553 47.7041 43.6276C47.7041 44.5999 47.4966 45.4685 47.0818 46.2334C46.6669 46.9853 46.103 47.5816 45.39 48.0224C44.677 48.4502 43.8667 48.6641 42.9592 48.6641ZM42.4342 46.4862C43.225 46.4862 43.8797 46.2204 44.3982 45.6889C44.9168 45.1573 45.1761 44.4703 45.1761 43.6276C45.1761 42.7849 44.9168 42.0913 44.3982 41.5468C43.8797 41.0024 43.225 40.7301 42.4342 40.7301C41.6304 40.7301 40.9692 41.0024 40.4507 41.5468C39.9451 42.0784 39.6923 42.7655 39.6923 43.6081C39.6923 44.4508 39.9451 45.1444 40.4507 45.6889C40.9692 46.2204 41.6304 46.4862 42.4342 46.4862ZM54.6141 48.6641C53.6418 48.6641 52.7797 48.4567 52.0278 48.0419C51.2759 47.627 50.686 47.0436 50.2582 46.2917C49.8304 45.5398 49.6165 44.6712 49.6165 43.6859C49.6165 42.6877 49.8239 41.7996 50.2388 41.0218C50.6666 40.244 51.25 39.6411 51.9889 39.2133C52.7408 38.7725 53.6224 38.5521 54.6336 38.5521C55.58 38.5521 56.4162 38.7596 57.1421 39.1744C57.8681 39.5893 58.4321 40.1597 58.834 40.8857C59.2488 41.5987 59.4562 42.396 59.4562 43.2776C59.4562 43.4202 59.4498 43.5692 59.4368 43.7248C59.4368 43.8804 59.4303 44.0424 59.4173 44.211H52.0861C52.138 44.9629 52.3973 45.5528 52.864 45.9806C53.3437 46.4084 53.9206 46.6223 54.5947 46.6223C55.1003 46.6223 55.5216 46.5121 55.8587 46.2917C56.2087 46.0584 56.468 45.7602 56.6365 45.3972H59.1645C58.983 46.0065 58.6784 46.564 58.2506 47.0696C57.8357 47.5622 57.3172 47.9511 56.6949 48.2363C56.0856 48.5215 55.392 48.6641 54.6141 48.6641ZM54.6336 40.5745C54.0243 40.5745 53.4863 40.7496 53.0196 41.0996C52.5528 41.4367 52.2547 41.9552 52.125 42.6553H56.9282C56.8893 42.02 56.656 41.5144 56.2282 41.1385C55.8004 40.7625 55.2688 40.5745 54.6336 40.5745ZM61.5497 48.4308V38.7855H63.7666L63.9999 40.594C64.35 39.9717 64.8232 39.4791 65.4195 39.1161C66.0288 38.7401 66.7419 38.5521 67.5586 38.5521V41.1774H66.8585C66.314 41.1774 65.8279 41.2616 65.4001 41.4302C64.9723 41.5987 64.6352 41.8904 64.3889 42.3052C64.1555 42.7201 64.0388 43.297 64.0388 44.036V48.4308H61.5497ZM73.7754 48.6641C72.8031 48.6641 71.941 48.4567 71.1891 48.0419C70.4372 47.627 69.8473 47.0436 69.4195 46.2917C68.9917 45.5398 68.7778 44.6712 68.7778 43.6859C68.7778 42.6877 68.9852 41.7996 69.4001 41.0218C69.8279 40.244 70.4113 39.6411 71.1502 39.2133C71.9021 38.7725 72.7837 38.5521 73.7949 38.5521C74.7413 38.5521 75.5774 38.7596 76.3034 39.1744C77.0294 39.5893 77.5934 40.1597 77.9953 40.8857C78.4101 41.5987 78.6175 42.396 78.6175 43.2776C78.6175 43.4202 78.611 43.5692 78.5981 43.7248C78.5981 43.8804 78.5916 44.0424 78.5786 44.211H71.2474C71.2993 44.9629 71.5586 45.5528 72.0253 45.9806C72.505 46.4084 73.0819 46.6223 73.756 46.6223C74.2616 46.6223 74.6829 46.5121 75.02 46.2917C75.37 46.0584 75.6293 45.7602 75.7978 45.3972H78.3258C78.1443 46.0065 77.8397 46.564 77.4119 47.0696C76.997 47.5622 76.4785 47.9511 75.8562 48.2363C75.2469 48.5215 74.5533 48.6641 73.7754 48.6641ZM73.7949 40.5745C73.1856 40.5745 72.6476 40.7496 72.1809 41.0996C71.7141 41.4367 71.416 41.9552 71.2863 42.6553H76.0895C76.0506 42.02 75.8173 41.5144 75.3895 41.1385C74.9617 40.7625 74.4301 40.5745 73.7949 40.5745ZM89.6423 48.4308C88.6311 48.4308 87.8208 48.1845 87.2115 47.6918C86.6022 47.1992 86.2976 46.3241 86.2976 45.0666V40.8662H84.6446V38.7855H86.2976L86.5892 36.1992H88.7867V38.7855H91.3924V40.8662H88.7867V45.086C88.7867 45.5528 88.8839 45.8769 89.0784 46.0584C89.2858 46.2269 89.6358 46.3112 90.1284 46.3112H91.3341V48.4308H89.6423ZM97.9109 48.6641C96.9774 48.6641 96.1348 48.4502 95.3829 48.0224C94.6439 47.5946 94.054 47.0047 93.6133 46.2528C93.1854 45.4879 92.9715 44.6064 92.9715 43.6081C92.9715 42.6099 93.1919 41.7348 93.6327 40.9829C94.0735 40.218 94.6633 39.6217 95.4023 39.1939C96.1542 38.766 96.9969 38.5521 97.9303 38.5521C98.8508 38.5521 99.6805 38.766 100.419 39.1939C101.171 39.6217 101.761 40.218 102.189 40.9829C102.63 41.7348 102.85 42.6099 102.85 43.6081C102.85 44.6064 102.63 45.4879 102.189 46.2528C101.761 47.0047 101.171 47.5946 100.419 48.0224C99.6675 48.4502 98.8313 48.6641 97.9109 48.6641ZM97.9109 46.5056C98.5591 46.5056 99.123 46.2658 99.6027 45.7861C100.082 45.2935 100.322 44.5675 100.322 43.6081C100.322 42.6488 100.082 41.9293 99.6027 41.4496C99.123 40.957 98.5655 40.7107 97.9303 40.7107C97.2691 40.7107 96.6987 40.957 96.219 41.4496C95.7523 41.9293 95.519 42.6488 95.519 43.6081C95.519 44.5675 95.7523 45.2935 96.219 45.7861C96.6987 46.2658 97.2626 46.5056 97.9109 46.5056ZM109.509 48.6641C108.602 48.6641 107.792 48.4438 107.079 48.003C106.366 47.5622 105.802 46.9594 105.387 46.1945C104.972 45.4296 104.765 44.561 104.765 43.5887C104.765 42.6164 104.972 41.7543 105.387 41.0024C105.802 40.2375 106.366 39.6411 107.079 39.2133C107.792 38.7725 108.602 38.5521 109.509 38.5521C110.235 38.5521 110.871 38.6883 111.415 38.9605C111.96 39.2328 112.4 39.6152 112.737 40.1078V34.4296H115.227V48.4308H113.01L112.737 47.0501C112.426 47.4779 112.011 47.8539 111.493 48.178C110.987 48.5021 110.326 48.6641 109.509 48.6641ZM110.034 46.4862C110.838 46.4862 111.493 46.2204 111.999 45.6889C112.517 45.1444 112.776 44.4508 112.776 43.6081C112.776 42.7655 112.517 42.0784 111.999 41.5468C111.493 41.0024 110.838 40.7301 110.034 40.7301C109.244 40.7301 108.589 40.9959 108.07 41.5274C107.552 42.0589 107.293 42.746 107.293 43.5887C107.293 44.4314 107.552 45.1249 108.07 45.6694C108.589 46.2139 109.244 46.4862 110.034 46.4862ZM121.087 48.6641C120.257 48.6641 119.576 48.5345 119.045 48.2752C118.513 48.003 118.118 47.6465 117.859 47.2057C117.599 46.7649 117.47 46.2787 117.47 45.7472C117.47 44.8527 117.82 44.1267 118.52 43.5692C119.22 43.0118 120.27 42.7331 121.67 42.7331H124.12V42.4997C124.12 41.8385 123.932 41.3524 123.556 41.0412C123.18 40.7301 122.714 40.5745 122.156 40.5745C121.651 40.5745 121.21 40.6977 120.834 40.944C120.458 41.1774 120.224 41.5274 120.134 41.9941H117.703C117.768 41.294 118.001 40.6847 118.403 40.1662C118.818 39.6476 119.349 39.2522 119.998 38.98C120.646 38.6947 121.372 38.5521 122.176 38.5521C123.55 38.5521 124.632 38.8957 125.423 39.5828C126.214 40.2699 126.609 41.2422 126.609 42.4997V48.4308H124.49L124.256 46.8751C123.971 47.3937 123.569 47.8215 123.051 48.1585C122.545 48.4956 121.89 48.6641 121.087 48.6641ZM121.651 46.7195C122.364 46.7195 122.915 46.4862 123.303 46.0195C123.705 45.5528 123.958 44.9759 124.062 44.2888H121.942C121.281 44.2888 120.808 44.4119 120.523 44.6582C120.237 44.8916 120.095 45.1833 120.095 45.5333C120.095 45.9093 120.237 46.201 120.523 46.4084C120.808 46.6158 121.184 46.7195 121.651 46.7195ZM132.971 48.6641C132.115 48.6641 131.364 48.528 130.715 48.2558C130.067 47.9706 129.549 47.5816 129.16 47.089C128.771 46.5964 128.537 46.0259 128.46 45.3777H130.968C131.046 45.7537 131.253 46.0778 131.59 46.35C131.94 46.6093 132.388 46.739 132.932 46.739C133.477 46.739 133.872 46.6288 134.118 46.4084C134.378 46.188 134.507 45.9352 134.507 45.65C134.507 45.2351 134.326 44.9564 133.963 44.8138C133.6 44.6582 133.094 44.5091 132.446 44.3665C132.031 44.2758 131.61 44.1656 131.182 44.036C130.754 43.9063 130.359 43.7443 129.996 43.5498C129.646 43.3424 129.361 43.0831 129.14 42.772C128.92 42.4479 128.81 42.0524 128.81 41.5857C128.81 40.7301 129.147 40.0106 129.821 39.4272C130.508 38.8438 131.467 38.5521 132.699 38.5521C133.84 38.5521 134.747 38.8179 135.421 39.3494C136.108 39.881 136.517 40.6134 136.646 41.5468H134.293C134.151 40.8338 133.613 40.4773 132.679 40.4773C132.213 40.4773 131.85 40.5681 131.59 40.7496C131.344 40.9311 131.221 41.1579 131.221 41.4302C131.221 41.7154 131.409 41.9423 131.785 42.1108C132.161 42.2793 132.66 42.4349 133.282 42.5775C133.956 42.7331 134.572 42.9081 135.13 43.1025C135.7 43.284 136.154 43.5628 136.491 43.9387C136.828 44.3017 136.996 44.8268 136.996 45.5139C137.009 46.1102 136.854 46.6482 136.53 47.1279C136.206 47.6076 135.739 47.9835 135.13 48.2558C134.52 48.528 133.801 48.6641 132.971 48.6641Z" fill="white"/>
<path d="M23.8795 69.7309C23.0498 69.7309 22.3692 69.6013 21.8376 69.342C21.3061 69.0697 20.9107 68.7132 20.6514 68.2725C20.3921 67.8317 20.2625 67.3455 20.2625 66.814C20.2625 65.9195 20.6125 65.1935 21.3126 64.636C22.0126 64.0786 23.0627 63.7998 24.4629 63.7998H26.9131V63.5665C26.9131 62.9053 26.7251 62.4192 26.3491 62.108C25.9732 61.7969 25.5065 61.6413 24.949 61.6413C24.4434 61.6413 24.0026 61.7645 23.6267 62.0108C23.2507 62.2441 23.0174 62.5942 22.9266 63.0609H20.4958C20.5607 62.3608 20.794 61.7515 21.1959 61.2329C21.6108 60.7144 22.1423 60.319 22.7905 60.0467C23.4387 59.7615 24.1647 59.6189 24.9685 59.6189C26.3427 59.6189 27.4252 59.9625 28.216 60.6496C29.0068 61.3367 29.4022 62.309 29.4022 63.5665V69.4976H27.2826L27.0492 67.9419C26.764 68.4604 26.3621 68.8882 25.8435 69.2253C25.3379 69.5624 24.6832 69.7309 23.8795 69.7309ZM24.4434 67.7863C25.1564 67.7863 25.7074 67.5529 26.0963 67.0862C26.4982 66.6195 26.751 66.0426 26.8547 65.3555H24.7351C24.0739 65.3555 23.6007 65.4787 23.3155 65.725C23.0303 65.9584 22.8877 66.2501 22.8877 66.6001C22.8877 66.976 23.0303 67.2677 23.3155 67.4752C23.6007 67.6826 23.9767 67.7863 24.4434 67.7863ZM35.764 69.7309C34.9083 69.7309 34.1564 69.5948 33.5082 69.3225C32.86 69.0373 32.3414 68.6484 31.9525 68.1558C31.5636 67.6631 31.3302 67.0927 31.2525 66.4445H33.761C33.8388 66.8205 34.0462 67.1446 34.3833 67.4168C34.7333 67.6761 35.1806 67.8057 35.7251 67.8057C36.2696 67.8057 36.665 67.6955 36.9113 67.4752C37.1706 67.2548 37.3002 67.002 37.3002 66.7168C37.3002 66.3019 37.1187 66.0232 36.7557 65.8806C36.3927 65.725 35.8871 65.5759 35.2389 65.4333C34.8241 65.3426 34.4027 65.2324 33.9749 65.1027C33.5471 64.9731 33.1517 64.811 32.7887 64.6166C32.4387 64.4091 32.1535 64.1499 31.9331 63.8387C31.7127 63.5146 31.6025 63.1192 31.6025 62.6525C31.6025 61.7969 31.9396 61.0774 32.6137 60.494C33.3008 59.9106 34.2601 59.6189 35.4917 59.6189C36.6326 59.6189 37.54 59.8847 38.2142 60.4162C38.9013 60.9477 39.3096 61.6802 39.4393 62.6136H37.0863C36.9437 61.9006 36.4057 61.5441 35.4723 61.5441C35.0056 61.5441 34.6426 61.6348 34.3833 61.8163C34.137 61.9978 34.0138 62.2247 34.0138 62.4969C34.0138 62.7822 34.2018 63.009 34.5777 63.1776C34.9537 63.3461 35.4528 63.5017 36.0751 63.6443C36.7492 63.7998 37.365 63.9749 37.9225 64.1693C38.4929 64.3508 38.9466 64.6295 39.2837 65.0055C39.6208 65.3685 39.7893 65.8935 39.7893 66.5806C39.8023 67.177 39.6467 67.715 39.3226 68.1947C38.9985 68.6743 38.5318 69.0503 37.9225 69.3225C37.3132 69.5948 36.5937 69.7309 35.764 69.7309Z" fill="white"/>
<path d="M52.8024 73.7385V57.8575H57.9297C59.1699 57.8575 60.1833 58.0617 60.9698 58.4701C61.7563 58.8784 62.3386 59.438 62.7167 60.1489C63.0948 60.8598 63.2839 61.6463 63.2839 62.5084C63.2839 63.5066 63.0116 64.4065 62.4671 65.2081C61.9378 66.0098 61.1059 66.5769 59.9716 66.9097L63.4427 73.7385H61.1967L57.9751 67.1819H57.839H54.7081V73.7385H52.8024ZM54.7081 65.6846H57.7936C59.0187 65.6846 59.9111 65.3896 60.4707 64.7998C61.0303 64.2099 61.3101 63.4537 61.3101 62.5311C61.3101 61.5933 61.0303 60.8522 60.4707 60.3077C59.9262 59.7481 59.0263 59.4683 57.7709 59.4683H54.7081V65.6846ZM70.5097 74.0108C69.4359 74.0108 68.483 73.7688 67.6512 73.2848C66.8193 72.7857 66.1614 72.0975 65.6774 71.2202C65.2085 70.343 64.9741 69.307 64.9741 68.1121C64.9741 66.9324 65.2085 65.9039 65.6774 65.0266C66.1462 64.1343 66.7966 63.4461 67.6285 62.9621C68.4755 62.463 69.451 62.2134 70.5551 62.2134C71.6441 62.2134 72.5818 62.463 73.3683 62.9621C74.1699 63.4461 74.7825 64.0889 75.206 64.8905C75.6295 65.6921 75.8412 66.5543 75.8412 67.4769C75.8412 67.6432 75.8337 67.8096 75.8185 67.976C75.8185 68.1424 75.8185 68.3314 75.8185 68.5432H66.8571C66.9025 69.4053 67.0991 70.1237 67.447 70.6984C67.81 71.2581 68.2562 71.6816 68.7855 71.9689C69.33 72.2563 69.9048 72.4 70.5097 72.4C71.2962 72.4 71.9542 72.2185 72.4835 71.8555C73.0129 71.4925 73.3986 71.0009 73.6406 70.3808H75.5236C75.2211 71.4244 74.6388 72.2941 73.7767 72.9898C72.9297 73.6705 71.8407 74.0108 70.5097 74.0108ZM70.5097 63.8242C69.6023 63.8242 68.7931 64.104 68.0822 64.6637C67.3865 65.2081 66.9857 66.0098 66.8798 67.0685H73.9582C73.9128 66.0551 73.565 65.2611 72.9146 64.6863C72.2642 64.1116 71.4626 63.8242 70.5097 63.8242ZM83.5398 74.0108C82.466 74.0108 81.498 73.7688 80.6359 73.2848C79.7889 72.7857 79.1158 72.0975 78.6167 71.2202C78.1327 70.3279 77.8907 69.2918 77.8907 68.1121C77.8907 66.9324 78.1327 65.9039 78.6167 65.0266C79.1158 64.1343 79.7889 63.4461 80.6359 62.9621C81.498 62.463 82.466 62.2134 83.5398 62.2134C84.8708 62.2134 85.99 62.5613 86.8975 63.257C87.8201 63.9528 88.4024 64.883 88.6444 66.0476H86.6933C86.5421 65.3518 86.1715 64.8149 85.5817 64.4368C84.9918 64.0435 84.3036 63.8469 83.5171 63.8469C82.8819 63.8469 82.2845 64.0057 81.7248 64.3233C81.1652 64.641 80.7115 65.1174 80.3636 65.7526C80.0157 66.3879 79.8418 67.1744 79.8418 68.1121C79.8418 69.0498 80.0157 69.8363 80.3636 70.4716C80.7115 71.1068 81.1652 71.5908 81.7248 71.9236C82.2845 72.2412 82.8819 72.4 83.5171 72.4C84.3036 72.4 84.9918 72.2109 85.5817 71.8328C86.1715 71.4396 86.5421 70.8875 86.6933 70.1766H88.6444C88.4176 71.311 87.8428 72.2336 86.9202 72.9445C85.9976 73.6553 84.8708 74.0108 83.5398 74.0108ZM96.3652 74.0108C95.2913 74.0108 94.3384 73.7688 93.5066 73.2848C92.6747 72.7857 92.0168 72.0975 91.5328 71.2202C91.0639 70.343 90.8295 69.307 90.8295 68.1121C90.8295 66.9324 91.0639 65.9039 91.5328 65.0266C92.0017 64.1343 92.652 63.4461 93.4839 62.9621C94.3309 62.463 95.3064 62.2134 96.4105 62.2134C97.4995 62.2134 98.4373 62.463 99.2237 62.9621C100.025 63.4461 100.638 64.0889 101.061 64.8905C101.485 65.6921 101.697 66.5543 101.697 67.4769C101.697 67.6432 101.689 67.8096 101.674 67.976C101.674 68.1424 101.674 68.3314 101.674 68.5432H92.7125C92.7579 69.4053 92.9545 70.1237 93.3024 70.6984C93.6654 71.2581 94.1116 71.6816 94.6409 71.9689C95.1854 72.2563 95.7602 72.4 96.3652 72.4C97.1516 72.4 97.8096 72.2185 98.3389 71.8555C98.8683 71.4925 99.254 71.0009 99.496 70.3808H101.379C101.077 71.4244 100.494 72.2941 99.6321 72.9898C98.7851 73.6705 97.6961 74.0108 96.3652 74.0108ZM96.3652 63.8242C95.4577 63.8242 94.6485 64.104 93.9376 64.6637C93.2419 65.2081 92.8411 66.0098 92.7352 67.0685H99.8136C99.7682 66.0551 99.4204 65.2611 98.77 64.6863C98.1196 64.1116 97.318 63.8242 96.3652 63.8242ZM105.38 59.9901C105.001 59.9901 104.684 59.8691 104.427 59.6271C104.185 59.37 104.064 59.0524 104.064 58.6742C104.064 58.3112 104.185 58.0087 104.427 57.7667C104.684 57.5248 105.001 57.4038 105.38 57.4038C105.743 57.4038 106.053 57.5248 106.31 57.7667C106.567 58.0087 106.695 58.3112 106.695 58.6742C106.695 59.0524 106.567 59.37 106.31 59.6271C106.053 59.8691 105.743 59.9901 105.38 59.9901ZM104.427 73.7385V62.4857H106.332V73.7385H104.427ZM114.097 73.7385C113.069 73.7385 112.26 73.489 111.67 72.9898C111.08 72.4907 110.785 71.5908 110.785 70.2901V64.0965H108.834V62.4857H110.785L111.035 59.7859H112.691V62.4857H116.003V64.0965H112.691V70.2901C112.691 71.0009 112.834 71.4849 113.122 71.7421C113.409 71.9841 113.916 72.105 114.642 72.105H115.822V73.7385H114.097ZM122.168 74.0108C121.23 74.0108 120.451 73.852 119.831 73.5343C119.211 73.2167 118.749 72.7932 118.447 72.2639C118.144 71.7345 117.993 71.1597 117.993 70.5396C117.993 69.3901 118.432 68.5053 119.309 67.8852C120.186 67.2651 121.381 66.9551 122.894 66.9551H125.934V66.8189C125.934 65.8358 125.677 65.0947 125.162 64.5956C124.648 64.0813 123.96 63.8242 123.098 63.8242C122.357 63.8242 121.714 64.0133 121.169 64.3914C120.64 64.7544 120.307 65.2913 120.171 66.0022H118.22C118.296 65.1855 118.568 64.4973 119.037 63.9377C119.521 63.378 120.118 62.9546 120.829 62.6672C121.54 62.3647 122.296 62.2134 123.098 62.2134C124.671 62.2134 125.85 62.6369 126.637 63.4839C127.439 64.3158 127.839 65.4275 127.839 66.8189V73.7385H126.138L126.024 71.7194C125.707 72.3546 125.238 72.8991 124.618 73.3528C124.013 73.7915 123.196 74.0108 122.168 74.0108ZM122.462 72.4C123.188 72.4 123.809 72.2109 124.323 71.8328C124.852 71.4547 125.253 70.9631 125.525 70.3581C125.798 69.7531 125.934 69.1179 125.934 68.4524V68.4297H123.052C121.933 68.4297 121.139 68.6263 120.67 69.0196C120.216 69.3977 119.99 69.8741 119.99 70.4489C119.99 71.0388 120.201 71.5152 120.625 71.8782C121.063 72.226 121.676 72.4 122.462 72.4ZM135.009 74.0108C133.663 74.0108 132.544 73.6705 131.651 72.9898C130.759 72.3092 130.237 71.3866 130.086 70.222H132.037C132.158 70.8119 132.468 71.3261 132.967 71.7647C133.481 72.1882 134.169 72.4 135.032 72.4C135.833 72.4 136.423 72.2336 136.801 71.9009C137.179 71.553 137.368 71.1446 137.368 70.6758C137.368 69.9951 137.119 69.5414 136.62 69.3145C136.136 69.0877 135.447 68.8835 134.555 68.702C133.95 68.581 133.345 68.407 132.74 68.1802C132.135 67.9533 131.628 67.6357 131.22 67.2273C130.812 66.8038 130.608 66.2518 130.608 65.5711C130.608 64.588 130.971 63.7864 131.697 63.1663C132.438 62.5311 133.436 62.2134 134.691 62.2134C135.886 62.2134 136.862 62.5159 137.618 63.1209C138.389 63.7108 138.835 64.5578 138.956 65.6619H137.073C136.998 65.0871 136.748 64.641 136.325 64.3233C135.916 63.9906 135.364 63.8242 134.669 63.8242C133.988 63.8242 133.459 63.9679 133.08 64.2553C132.717 64.5427 132.536 64.9208 132.536 65.3896C132.536 65.8434 132.77 66.1988 133.239 66.4559C133.723 66.7131 134.374 66.9324 135.19 67.1139C135.886 67.2651 136.544 67.4542 137.164 67.681C137.799 67.8928 138.314 68.218 138.707 68.6566C139.115 69.0801 139.319 69.7002 139.319 70.5169C139.335 71.5303 138.949 72.3697 138.162 73.0352C137.391 73.6856 136.34 74.0108 135.009 74.0108Z" fill="white"/>
<path d="M24.9923 98.0463V82.1652H30.2103C31.4506 82.1652 32.4715 82.3694 33.2731 82.7778C34.0747 83.1862 34.6646 83.7382 35.0427 84.434C35.436 85.1297 35.6326 85.9162 35.6326 86.7934C35.6326 87.6555 35.4435 88.4345 35.0654 89.1302C34.6873 89.8259 34.0974 90.3856 33.2958 90.8091C32.4942 91.2174 31.4657 91.4216 30.2103 91.4216H26.898V98.0463H24.9923ZM26.898 89.8108H30.165C31.4355 89.8108 32.3354 89.5461 32.8647 89.0168C33.4092 88.4723 33.6815 87.7312 33.6815 86.7934C33.6815 85.8406 33.4092 85.0994 32.8647 84.5701C32.3354 84.0256 31.4355 83.7533 30.165 83.7533H26.898V89.8108ZM38.017 98.0463V86.7934H39.7413L39.9001 88.9487C40.2479 88.2076 40.7773 87.6177 41.4882 87.1791C42.199 86.7405 43.0763 86.5212 44.1199 86.5212V88.5176H43.5981C42.9326 88.5176 42.32 88.6386 41.7604 88.8806C41.2008 89.1075 40.7546 89.5008 40.4219 90.0604C40.0891 90.62 39.9228 91.3914 39.9228 92.3745V98.0463H38.017ZM50.8972 98.3185C49.8233 98.3185 48.8704 98.0765 48.0386 97.5925C47.2067 97.0934 46.5488 96.4052 46.0648 95.528C45.5959 94.6507 45.3615 93.6147 45.3615 92.4198C45.3615 91.2401 45.5959 90.2116 46.0648 89.3344C46.5337 88.442 47.184 87.7538 48.0159 87.2699C48.8629 86.7707 49.8384 86.5212 50.9425 86.5212C52.0315 86.5212 52.9693 86.7707 53.7557 87.2699C54.5574 87.7538 55.1699 88.3967 55.5934 89.1983C56.0169 89.9999 56.2286 90.862 56.2286 91.7846C56.2286 91.951 56.2211 92.1173 56.206 92.2837C56.206 92.4501 56.206 92.6392 56.206 92.8509H47.2445C47.2899 93.713 47.4865 94.4314 47.8344 95.0062C48.1974 95.5658 48.6436 95.9893 49.1729 96.2767C49.7174 96.564 50.2922 96.7077 50.8972 96.7077C51.6836 96.7077 52.3416 96.5262 52.8709 96.1632C53.4003 95.8002 53.786 95.3087 54.028 94.6886H55.911C55.6085 95.7322 55.0262 96.6018 54.1641 97.2976C53.3171 97.9782 52.2281 98.3185 50.8972 98.3185ZM50.8972 88.132C49.9897 88.132 49.1805 88.4118 48.4696 88.9714C47.7739 89.5159 47.3731 90.3175 47.2672 91.3762H54.3456C54.3002 90.3629 53.9524 89.5688 53.302 88.9941C52.6516 88.4193 51.85 88.132 50.8972 88.132ZM58.7545 98.0463V86.7934H60.4788L60.6149 88.4269C60.9779 87.8219 61.4619 87.353 62.0669 87.0203C62.6719 86.6875 63.3525 86.5212 64.1087 86.5212C65.0011 86.5212 65.7649 86.7027 66.4001 87.0657C67.0505 87.4287 67.5496 87.9807 67.8975 88.7218C68.2907 88.0412 68.8276 87.5043 69.5083 87.111C70.204 86.7178 70.9527 86.5212 71.7543 86.5212C73.1004 86.5212 74.1743 86.9295 74.9759 87.7463C75.7775 88.5479 76.1783 89.7881 76.1783 91.467V98.0463H74.2953V91.6712C74.2953 90.5066 74.0608 89.6293 73.592 89.0395C73.1231 88.4496 72.45 88.1547 71.5728 88.1547C70.6653 88.1547 69.9091 88.5101 69.3041 89.221C68.7142 89.9167 68.4193 90.9149 68.4193 92.2157V98.0463H66.5136V91.6712C66.5136 90.5066 66.2791 89.6293 65.8103 89.0395C65.3414 88.4496 64.6683 88.1547 63.7911 88.1547C62.8987 88.1547 62.1501 88.5101 61.5451 89.221C60.9552 89.9167 60.6603 90.9149 60.6603 92.2157V98.0463H58.7545ZM80.206 84.2978C79.8279 84.2978 79.5102 84.1768 79.2531 83.9348C79.0111 83.6777 78.8901 83.3601 78.8901 82.982C78.8901 82.619 79.0111 82.3165 79.2531 82.0745C79.5102 81.8325 79.8279 81.7115 80.206 81.7115C80.569 81.7115 80.879 81.8325 81.1362 82.0745C81.3933 82.3165 81.5218 82.619 81.5218 82.982C81.5218 83.3601 81.3933 83.6777 81.1362 83.9348C80.879 84.1768 80.569 84.2978 80.206 84.2978ZM79.2531 98.0463V86.7934H81.1588V98.0463H79.2531ZM88.5834 98.3185C87.2524 98.3185 86.1937 97.9177 85.4072 97.1161C84.6207 96.2994 84.2275 95.0516 84.2275 93.3727V86.7934H86.1332V93.1685C86.1332 95.5129 87.0936 96.685 89.0145 96.685C89.9976 96.685 90.8067 96.3372 91.442 95.6414C92.0923 94.9306 92.4175 93.9248 92.4175 92.624V86.7934H94.3233V98.0463H92.599L92.4629 96.0271C92.115 96.738 91.5932 97.2976 90.8975 97.706C90.2169 98.1143 89.4455 98.3185 88.5834 98.3185ZM97.4601 98.0463V86.7934H99.1843L99.3205 88.4269C99.6835 87.8219 100.167 87.353 100.772 87.0203C101.377 86.6875 102.058 86.5212 102.814 86.5212C103.707 86.5212 104.47 86.7027 105.106 87.0657C105.756 87.4287 106.255 87.9807 106.603 88.7218C106.996 88.0412 107.533 87.5043 108.214 87.111C108.91 86.7178 109.658 86.5212 110.46 86.5212C111.806 86.5212 112.88 86.9295 113.681 87.7463C114.483 88.5479 114.884 89.7881 114.884 91.467V98.0463H113.001V91.6712C113.001 90.5066 112.766 89.6293 112.298 89.0395C111.829 88.4496 111.156 88.1547 110.278 88.1547C109.371 88.1547 108.615 88.5101 108.01 89.221C107.42 89.9167 107.125 90.9149 107.125 92.2157V98.0463H105.219V91.6712C105.219 90.5066 104.985 89.6293 104.516 89.0395C104.047 88.4496 103.374 88.1547 102.497 88.1547C101.604 88.1547 100.856 88.5101 100.251 89.221C99.6608 89.9167 99.3658 90.9149 99.3658 92.2157V98.0463H97.4601Z" fill="white"/>
</svg>
