<svg width="78" height="43" viewBox="0 0 78 43" fill="none" xmlns="http://www.w3.org/2000/svg">
<path d="M40.7095 12.5854C44.1307 7.74483 48.6517 6.92588 51.0955 7.16062C53.5392 7.39536 57.4085 8.41251 57.2049 13.2114C56.9837 18.4238 53.9465 20.9313 51.9101 22.3918C47.4298 25.605 42.135 24.4783 40.3022 23.0178C39.7938 22.6127 36.4329 18.6362 40.7095 12.5854Z" fill="white"/>
<path d="M22.3812 12.5854C25.8025 7.74483 30.3235 6.92588 32.7672 7.16062C35.211 7.39536 39.0803 8.41251 38.8766 13.2114C38.6554 18.4238 35.6183 20.9313 33.5818 22.3918C29.1016 25.605 23.8067 24.4783 21.9739 23.0178C21.4656 22.6127 18.1046 18.6362 22.3812 12.5854Z" fill="white"/>
<path d="M11.2783 0.0307617H5.57622L4.55799 4.82964H10.2601L11.2783 0.0307617Z" fill="white"/>
<path d="M9.85282 7.54205H4.15069L0.892334 24.2338H6.59446L9.85282 7.54205Z" fill="white"/>
<path d="M26.1446 0.865349C17.51 -2.13917 13.8579 4.0646 13.1112 7.54205H11.2783L10.6674 10.8804H12.5002L9.03823 28.824H14.7404L18.2024 10.8804H22.479L23.0899 7.54205H19.0169C19.0169 2.70144 23.3614 3.43866 25.5337 4.41234L26.1446 0.865349Z" fill="white"/>
<path d="M45.2875 31.9537C31.4394 43.1372 21.7322 34.527 18.6097 28.824C22.6826 46.9489 41.0109 43.4293 48.7495 36.7526L50.3786 41.7601L53.0261 28.824H41.6218L45.2875 31.9537Z" fill="white"/>
<path d="M77.0564 0.447998L72.5762 24.2337H66.6704L67.3689 20.6867C65.4485 24.0251 57.5063 26.5289 56.8953 20.8954C56.6238 18.7394 57.0175 13.3006 61.5792 9.62846C66.1409 5.95628 68.9105 7.33335 69.9163 7.75064L71.3543 0.447998H77.0564Z" fill="white"/>
</svg>
