<svg width="53" height="53" viewBox="0 0 53 53" fill="none" xmlns="http://www.w3.org/2000/svg">
<path d="M15.9607 7.02564H7.31796V15.6684M46.2103 15.6684V7.02564L37.5675 7.02563M37.5675 45.9179H46.2103V37.2752M7.31796 37.2752L7.31796 45.9179H15.9607M37.5675 13.5077V23.4883M31.0855 17.8291V23.2308M13.8 30.7932H23.5231M18.1214 37.2752H23.5231M15.9607 24.3111H22.4427C23.6361 24.3111 24.6034 23.3437 24.6034 22.1504V15.6684C24.6034 14.4751 23.6361 13.5077 22.4427 13.5077H15.9607C14.7674 13.5077 13.8 14.4751 13.8 15.6684V22.1504C13.8 23.3437 14.7674 24.3111 15.9607 24.3111ZM31.0855 39.4359H37.5675C38.7608 39.4359 39.7282 38.4685 39.7282 37.2752V30.7932C39.7282 29.5998 38.7608 28.6325 37.5675 28.6325H31.0855C29.8922 28.6325 28.9248 29.5998 28.9248 30.7932V37.2752C28.9248 38.4685 29.8922 39.4359 31.0855 39.4359ZM34.3265 35.1145C33.7299 35.1145 33.2462 34.6308 33.2462 34.0342C33.2462 33.4375 33.7299 32.9538 34.3265 32.9538C34.9232 32.9538 35.4068 33.4375 35.4068 34.0342C35.4068 34.6308 34.9232 35.1145 34.3265 35.1145Z" stroke="#EA1D2C" stroke-width="3.24103" stroke-linecap="round" stroke-linejoin="round"/>
</svg>
