<svg width="19" height="18" viewBox="0 0 19 18" fill="none" xmlns="http://www.w3.org/2000/svg">
<path d="M8.02807 1.47916C8.51317 -0.0138341 10.6254 -0.0138325 11.1105 1.47916L12.1161 4.57407C12.333 5.24176 12.9552 5.69381 13.6573 5.69381L16.9114 5.69381C18.4813 5.69381 19.134 7.70263 17.8639 8.62535L15.2313 10.5381C14.6633 10.9508 14.4256 11.6822 14.6426 12.3499L15.6482 15.4448C16.1333 16.9378 14.4245 18.1793 13.1545 17.2566L10.5218 15.3438C9.95381 14.9312 9.18472 14.9312 8.61675 15.3438L5.98407 17.2566C4.71405 18.1793 3.00525 16.9378 3.49036 15.4448L4.49595 12.3499C4.7129 11.6822 4.47524 10.9508 3.90727 10.5381L1.27458 8.62535C0.00456428 7.70263 0.657267 5.69381 2.2271 5.69381L5.48127 5.69381C6.18332 5.69381 6.80553 5.24176 7.02247 4.57407L8.02807 1.47916Z" fill="#D9B600"/>
</svg>
